<?xml version="1.0" encoding="UTF-8" standalone="no"?>
<!DOCTYPE svg PUBLIC "-//W3C//DTD SVG 1.1//EN"
 "http://www.w3.org/Graphics/SVG/1.1/DTD/svg11.dtd">
<!-- Generated by graphviz version 2.38.0 (20140413.2041)
 -->
<!-- Title: Simple_CNN Pages: 1 -->
<svg width="284pt" height="451pt"
 viewBox="0.00 0.00 284.00 451.00" xmlns="http://www.w3.org/2000/svg" xmlns:xlink="http://www.w3.org/1999/xlink">
<g id="graph0" class="graph" transform="scale(1 1) rotate(0) translate(4 447)">
<title>Simple_CNN</title>
<polygon fill="white" stroke="none" points="-4,4 -4,-447 280,-447 280,4 -4,4"/>
<!-- Input1 -->
<g id="node1" class="node"><title>Input1</title>
<polygon fill="#3288bd" fill-opacity="0.250980" stroke="#3288bd" points="0,-420.5 0,-442.5 276,-442.5 276,-420.5 0,-420.5"/>
<text text-anchor="middle" x="138" y="-427.8" font-family="Helvetica,sans-Serif" font-size="14.00">224x224x3 Input1(input)</text>
</g>
<!-- Convo.1 -->
<g id="node2" class="node"><title>Convo.1</title>
<polygon fill="#fee08b" fill-opacity="0.250980" stroke="#b58c15" points="6,-350.5 6,-372.5 270,-372.5 270,-350.5 6,-350.5"/>
<text text-anchor="middle" x="138" y="-357.8" font-family="Helvetica,sans-Serif" font-size="14.00">7x7 Convo.1(convo)</text>
</g>
<!-- Input1&#45;&gt;Convo.1 -->
<g id="edge1" class="edge"><title>Input1&#45;&gt;Convo.1</title>
<path fill="none" stroke="#5677f3" d="M138,-420.466C138,-410.623 138,-395.327 138,-382.919"/>
<polygon fill="#5677f3" stroke="#5677f3" points="141.5,-382.575 138,-372.575 134.5,-382.575 141.5,-382.575"/>
<text text-anchor="middle" x="170" y="-394" font-family="Helvetica,sans-Serif" font-size="10.00"> 224 x 224 x 3 </text>
</g>
<!-- Pool1 -->
<g id="node3" class="node"><title>Pool1</title>
<polygon fill="#66c2a5" fill-opacity="0.250980" stroke="#66c2a5" points="32,-280.5 32,-302.5 244,-302.5 244,-280.5 32,-280.5"/>
<text text-anchor="middle" x="138" y="-287.8" font-family="Helvetica,sans-Serif" font-size="14.00">2x2 Pool1(pool)</text>
</g>
<!-- Convo.1&#45;&gt;Pool1 -->
<g id="edge2" class="edge"><title>Convo.1&#45;&gt;Pool1</title>
<path fill="none" stroke="#5677f3" d="M138,-350.466C138,-340.623 138,-325.327 138,-312.919"/>
<polygon fill="#5677f3" stroke="#5677f3" points="141.5,-312.575 138,-302.575 134.5,-312.575 141.5,-312.575"/>
<text text-anchor="middle" x="167.5" y="-324" font-family="Helvetica,sans-Serif" font-size="10.00"> 224 x 224 x 8 </text>
</g>
<!-- Convo.2 -->
<g id="node4" class="node"><title>Convo.2</title>
<polygon fill="#fee08b" fill-opacity="0.250980" stroke="#b58c15" points="6,-210.5 6,-232.5 270,-232.5 270,-210.5 6,-210.5"/>
<text text-anchor="middle" x="138" y="-217.8" font-family="Helvetica,sans-Serif" font-size="14.00">7x7 Convo.2(convo)</text>
</g>
<!-- Pool1&#45;&gt;Convo.2 -->
<g id="edge3" class="edge"><title>Pool1&#45;&gt;Convo.2</title>
<path fill="none" stroke="#5677f3" d="M138,-280.466C138,-270.623 138,-255.327 138,-242.919"/>
<polygon fill="#5677f3" stroke="#5677f3" points="141.5,-242.575 138,-232.575 134.5,-242.575 141.5,-242.575"/>
<text text-anchor="middle" x="167.5" y="-254" font-family="Helvetica,sans-Serif" font-size="10.00"> 112 x 112 x 8 </text>
</g>
<!-- Pool2 -->
<g id="node5" class="node"><title>Pool2</title>
<polygon fill="#66c2a5" fill-opacity="0.250980" stroke="#66c2a5" points="32,-140.5 32,-162.5 244,-162.5 244,-140.5 32,-140.5"/>
<text text-anchor="middle" x="138" y="-147.8" font-family="Helvetica,sans-Serif" font-size="14.00">2x2 Pool2(pool)</text>
</g>
<!-- Convo.2&#45;&gt;Pool2 -->
<g id="edge4" class="edge"><title>Convo.2&#45;&gt;Pool2</title>
<path fill="none" stroke="#5677f3" d="M138,-210.466C138,-200.623 138,-185.327 138,-172.919"/>
<polygon fill="#5677f3" stroke="#5677f3" points="141.5,-172.575 138,-162.575 134.5,-172.575 141.5,-172.575"/>
<text text-anchor="middle" x="167.5" y="-184" font-family="Helvetica,sans-Serif" font-size="10.00"> 112 x 112 x 8 </text>
</g>
<!-- F.C.1 -->
<g id="node6" class="node"><title>F.C.1</title>
<polygon fill="#ffffbf" fill-opacity="0.250980" stroke="#aeae82" points="35,-70.5 35,-92.5 241,-92.5 241,-70.5 35,-70.5"/>
<text text-anchor="middle" x="138" y="-77.8" font-family="Helvetica,sans-Serif" font-size="14.00">25088x16 F.C.1(fc)</text>
</g>
<!-- Pool2&#45;&gt;F.C.1 -->
<g id="edge5" class="edge"><title>Pool2&#45;&gt;F.C.1</title>
<path fill="none" stroke="#5677f3" d="M138,-140.466C138,-130.623 138,-115.327 138,-102.919"/>
<polygon fill="#5677f3" stroke="#5677f3" points="141.5,-102.575 138,-92.5748 134.5,-102.575 141.5,-102.575"/>
<text text-anchor="middle" x="160" y="-114" font-family="Helvetica,sans-Serif" font-size="10.00"> 56 x 56 x 8 </text>
</g>
<!-- Output1 -->
<g id="node7" class="node"><title>Output1</title>
<polygon fill="#5e4fa2" fill-opacity="0.125490" stroke="#5e4fa2" points="20.5,-0.5 20.5,-22.5 255.5,-22.5 255.5,-0.5 20.5,-0.5"/>
<text text-anchor="middle" x="138" y="-7.8" font-family="Helvetica,sans-Serif" font-size="14.00">16x2 Output1(output)</text>
</g>
<!-- F.C.1&#45;&gt;Output1 -->
<g id="edge6" class="edge"><title>F.C.1&#45;&gt;Output1</title>
<path fill="none" stroke="#5677f3" d="M138,-70.4664C138,-60.6231 138,-45.327 138,-32.9189"/>
<polygon fill="#5677f3" stroke="#5677f3" points="141.5,-32.5748 138,-22.5748 134.5,-32.5748 141.5,-32.5748"/>
<text text-anchor="middle" x="146" y="-44" font-family="Helvetica,sans-Serif" font-size="10.00"> 16 </text>
</g>
</g>
</svg>
