<?xml version="1.0" encoding="UTF-8" standalone="no"?>
<!DOCTYPE svg PUBLIC "-//W3C//DTD SVG 1.1//EN"
 "http://www.w3.org/Graphics/SVG/1.1/DTD/svg11.dtd">
<!-- Generated by graphviz version 2.38.0 (20140413.2041)
 -->
<!-- Title: Simple_CNN Pages: 1 -->
<svg width="213pt" height="451pt"
 viewBox="0.00 0.00 213.00 451.00" xmlns="http://www.w3.org/2000/svg" xmlns:xlink="http://www.w3.org/1999/xlink">
<g id="graph0" class="graph" transform="scale(1 1) rotate(0) translate(4 447)">
<title>Simple_CNN</title>
<polygon fill="white" stroke="none" points="-4,4 -4,-447 209,-447 209,4 -4,4"/>
<!-- Input1 -->
<g id="node1" class="node"><title>Input1</title>
<polygon fill="#3288bd" fill-opacity="0.250980" stroke="#3288bd" points="-1.42109e-14,-420.5 -1.42109e-14,-442.5 205,-442.5 205,-420.5 -1.42109e-14,-420.5"/>
<text text-anchor="middle" x="102.5" y="-427.8" font-family="Helvetica,sans-Serif" font-size="14.00">224x224x3 Input1(input)</text>
</g>
<!-- Convo.1 -->
<g id="node2" class="node"><title>Convo.1</title>
<polygon fill="#fee08b" fill-opacity="0.250980" stroke="#b58c15" points="19,-350.5 19,-372.5 186,-372.5 186,-350.5 19,-350.5"/>
<text text-anchor="middle" x="102.5" y="-357.8" font-family="Helvetica,sans-Serif" font-size="14.00">7x7 Convo.1(convo)</text>
</g>
<!-- Input1&#45;&gt;Convo.1 -->
<g id="edge1" class="edge"><title>Input1&#45;&gt;Convo.1</title>
<path fill="none" stroke="#5677f3" d="M102.5,-420.466C102.5,-410.623 102.5,-395.327 102.5,-382.919"/>
<polygon fill="#5677f3" stroke="#5677f3" points="106,-382.575 102.5,-372.575 99.0001,-382.575 106,-382.575"/>
<text text-anchor="middle" x="138" y="-394" font-family="Helvetica,sans-Serif" font-size="10.00"> 224 x 224 x 3 </text>
</g>
<!-- Pool1 -->
<g id="node3" class="node"><title>Pool1</title>
<polygon fill="#66c2a5" fill-opacity="0.250980" stroke="#66c2a5" points="34.5,-280.5 34.5,-302.5 170.5,-302.5 170.5,-280.5 34.5,-280.5"/>
<text text-anchor="middle" x="102.5" y="-287.8" font-family="Helvetica,sans-Serif" font-size="14.00">2x2 Pool1(pool)</text>
</g>
<!-- Convo.1&#45;&gt;Pool1 -->
<g id="edge2" class="edge"><title>Convo.1&#45;&gt;Pool1</title>
<path fill="none" stroke="#5677f3" d="M102.5,-350.466C102.5,-340.623 102.5,-325.327 102.5,-312.919"/>
<polygon fill="#5677f3" stroke="#5677f3" points="106,-312.575 102.5,-302.575 99.0001,-312.575 106,-312.575"/>
<text text-anchor="middle" x="138" y="-324" font-family="Helvetica,sans-Serif" font-size="10.00"> 224 x 224 x 8 </text>
</g>
<!-- Convo.2 -->
<g id="node4" class="node"><title>Convo.2</title>
<polygon fill="#fee08b" fill-opacity="0.250980" stroke="#b58c15" points="19,-210.5 19,-232.5 186,-232.5 186,-210.5 19,-210.5"/>
<text text-anchor="middle" x="102.5" y="-217.8" font-family="Helvetica,sans-Serif" font-size="14.00">7x7 Convo.2(convo)</text>
</g>
<!-- Pool1&#45;&gt;Convo.2 -->
<g id="edge3" class="edge"><title>Pool1&#45;&gt;Convo.2</title>
<path fill="none" stroke="#5677f3" d="M102.5,-280.466C102.5,-270.623 102.5,-255.327 102.5,-242.919"/>
<polygon fill="#5677f3" stroke="#5677f3" points="106,-242.575 102.5,-232.575 99.0001,-242.575 106,-242.575"/>
<text text-anchor="middle" x="138" y="-254" font-family="Helvetica,sans-Serif" font-size="10.00"> 112 x 112 x 8 </text>
</g>
<!-- Pool2 -->
<g id="node5" class="node"><title>Pool2</title>
<polygon fill="#66c2a5" fill-opacity="0.250980" stroke="#66c2a5" points="34.5,-140.5 34.5,-162.5 170.5,-162.5 170.5,-140.5 34.5,-140.5"/>
<text text-anchor="middle" x="102.5" y="-147.8" font-family="Helvetica,sans-Serif" font-size="14.00">2x2 Pool2(pool)</text>
</g>
<!-- Convo.2&#45;&gt;Pool2 -->
<g id="edge4" class="edge"><title>Convo.2&#45;&gt;Pool2</title>
<path fill="none" stroke="#5677f3" d="M102.5,-210.466C102.5,-200.623 102.5,-185.327 102.5,-172.919"/>
<polygon fill="#5677f3" stroke="#5677f3" points="106,-172.575 102.5,-162.575 99.0001,-172.575 106,-172.575"/>
<text text-anchor="middle" x="138" y="-184" font-family="Helvetica,sans-Serif" font-size="10.00"> 112 x 112 x 8 </text>
</g>
<!-- F.C.1 -->
<g id="node6" class="node"><title>F.C.1</title>
<polygon fill="#ffffbf" fill-opacity="0.250980" stroke="#aeae82" points="22.5,-70.5 22.5,-92.5 182.5,-92.5 182.5,-70.5 22.5,-70.5"/>
<text text-anchor="middle" x="102.5" y="-77.8" font-family="Helvetica,sans-Serif" font-size="14.00">25088x16 F.C.1(fc)</text>
</g>
<!-- Pool2&#45;&gt;F.C.1 -->
<g id="edge5" class="edge"><title>Pool2&#45;&gt;F.C.1</title>
<path fill="none" stroke="#5677f3" d="M102.5,-140.466C102.5,-130.623 102.5,-115.327 102.5,-102.919"/>
<polygon fill="#5677f3" stroke="#5677f3" points="106,-102.575 102.5,-92.5748 99.0001,-102.575 106,-102.575"/>
<text text-anchor="middle" x="132" y="-114" font-family="Helvetica,sans-Serif" font-size="10.00"> 56 x 56 x 8 </text>
</g>
<!-- Output1 -->
<g id="node7" class="node"><title>Output1</title>
<polygon fill="#5e4fa2" fill-opacity="0.125490" stroke="#5e4fa2" points="23.5,-0.5 23.5,-22.5 181.5,-22.5 181.5,-0.5 23.5,-0.5"/>
<text text-anchor="middle" x="102.5" y="-7.8" font-family="Helvetica,sans-Serif" font-size="14.00">2 Output1(output)</text>
</g>
<!-- F.C.1&#45;&gt;Output1 -->
<g id="edge6" class="edge"><title>F.C.1&#45;&gt;Output1</title>
<path fill="none" stroke="#5677f3" d="M102.5,-70.4664C102.5,-60.6231 102.5,-45.327 102.5,-32.9189"/>
<polygon fill="#5677f3" stroke="#5677f3" points="106,-32.5748 102.5,-22.5748 99.0001,-32.5748 106,-32.5748"/>
<text text-anchor="middle" x="112" y="-44" font-family="Helvetica,sans-Serif" font-size="10.00"> 16 </text>
</g>
</g>
</svg>
